<svg width="55" height="45" viewBox="0 0 55 45" fill="none" xmlns="http://www.w3.org/2000/svg">
<path id="arrow" fill-rule="evenodd" clip-rule="evenodd" d="M25.6687 30.4651C24.5342 34.0749 23.2331 41.4274 29.047 41.4717C32.7464 41.4993 37.1821 38.6541 37.9813 34.8834C38.9826 30.1575 34.0084 27.9924 30.2005 27.5094C29.1044 27.37 27.9923 27.3202 26.8736 27.3332C26.4134 28.3533 26.0047 29.3964 25.6687 30.4651M0.303426 34.0109C7.4066 29.2543 16.1992 25.7753 24.908 25.1653C25.81 23.415 26.7969 21.8251 27.7017 20.5313C32.9586 13.016 41.34 6.37802 49.9757 3.20671C50.9195 2.86047 51.6755 3.81409 51.5582 4.63196C51.6764 4.18572 51.7891 3.73789 51.8963 3.28847C50.7133 3.05603 49.5316 3.01657 48.2887 3.17547C47.5293 3.27282 46.7517 3.59418 45.9982 3.63164C45.5494 3.65406 45.435 3.3548 44.9493 3.4458C44.7943 3.47485 44.6386 3.30192 44.7689 3.16516C45.1259 2.791 45.1084 2.35445 45.4812 1.99521C46.0682 1.42904 47.4376 1.055 48.1924 0.872925C50.0721 0.419445 52.0097 0.490306 53.887 0.903502C54.671 1.07633 55.051 1.83489 54.9452 2.58279C54.6862 4.41629 54.1669 6.2132 53.5392 7.95207C52.9951 9.45846 52.4743 11.205 51.3271 12.3559C50.4282 13.2588 48.9434 12.4874 49.165 11.2315C49.4351 9.69898 50.3631 8.29846 50.889 6.83045C51.1145 6.20109 51.302 5.56497 51.4769 4.92564C51.3892 5.11857 51.2417 5.29172 51.0195 5.42103C43.8411 9.5985 36.9065 13.3757 31.5274 19.9217C30.2056 21.529 29.0164 23.2568 28.0046 25.0812C28.1954 25.0833 28.3879 25.0772 28.5795 25.0819C34.8767 25.2498 43.2174 29.296 40.0033 36.9545C37.7228 42.3906 27.9084 47.4926 23.556 41.4868C20.775 37.6497 21.7779 32.2535 23.8018 27.5163C21.1169 27.7947 18.4392 28.3461 15.8902 28.9005C10.5762 30.0555 5.4016 31.9787 0.491823 34.3011C0.297067 34.393 0.112271 34.1387 0.303426 34.0109" fill="black"/>
</svg>
