<svg width="562" height="598" viewBox="0 0 562 598" fill="none" xmlns="http://www.w3.org/2000/svg">
<g clip-path="url(#clip0_37_276)">
<path d="M561.191 598.239C559.898 598.079 558.604 598.079 557.472 598.079C514.291 598.079 470.948 597.919 427.767 597.919C426.473 597.919 425.179 597.919 423.885 597.919C422.753 597.919 422.268 597.279 422.268 596.159C422.268 595.198 422.268 594.398 422.268 593.438C422.592 577.434 422.753 561.429 423.077 545.585C423.239 533.422 423.562 521.259 423.724 508.935C423.724 505.735 423.885 502.694 423.885 499.493C423.885 498.213 424.209 497.572 425.664 496.932C428.252 495.972 429.546 492.931 428.414 490.371C428.09 489.57 427.12 488.77 426.311 488.45C425.503 488.13 424.532 488.29 423.724 488.29C407.389 487.97 391.217 487.81 374.882 487.49C371.324 487.49 371.163 487.33 371.001 483.969C370.677 478.367 370.839 472.606 370.677 467.004C370.677 465.564 371.486 465.084 372.618 464.604C381.675 460.763 388.306 454.041 393.157 445.559C394.936 442.518 396.554 439.317 400.435 438.357C400.759 438.197 401.082 438.037 401.405 437.716C402.376 436.596 402.699 435.316 402.214 433.875C401.729 432.595 400.597 432.435 399.465 432.435C398.171 432.435 396.877 432.275 395.583 432.275C387.497 432.115 379.249 432.115 371.163 431.955C367.928 431.955 367.928 431.955 367.928 428.914C367.281 414.03 366.473 398.986 365.826 384.102C365.826 382.662 365.502 381.221 365.826 379.941C365.987 379.141 366.958 378.501 367.443 377.7C367.766 378.341 368.413 378.821 368.575 379.461C369.384 381.702 369.545 384.262 370.677 386.183C373.427 391.144 376.5 395.945 379.411 400.747C381.028 403.467 383.616 404.908 386.688 404.748C388.953 404.588 390.893 405.388 392.834 406.348C394.936 407.468 397.201 408.429 399.465 409.229C404.802 411.149 410.3 412.91 415.799 414.51C421.945 416.431 428.09 418.351 434.398 420.112C440.058 421.712 445.233 420.592 449.762 416.911C452.996 414.35 456.069 411.469 459.142 408.589C461.568 406.188 463.67 403.467 466.258 401.227C473.05 395.305 476.123 388.263 474.506 379.461C473.859 376.26 474.344 372.899 475.153 369.698C475.638 367.938 476.123 366.017 476.447 364.097C477.255 359.936 477.255 355.775 475.314 351.934C473.535 348.413 471.595 344.892 469.169 341.531C467.875 339.77 467.228 338.17 467.875 335.929C468.199 335.129 468.36 334.169 468.522 333.369C469.007 330.968 470.139 329.208 472.242 327.927C475.476 325.847 478.549 323.766 481.622 321.365C486.15 317.845 490.679 314.324 494.722 310.483C500.867 304.881 504.264 297.839 504.749 289.517C504.91 286.956 505.072 284.236 504.91 281.675C504.102 275.273 504.587 268.871 506.204 262.63C507.175 258.949 506.528 255.428 504.587 252.067C501.838 247.586 498.765 243.585 493.913 241.184C491.649 240.064 491.649 239.904 492.619 237.343C492.781 236.703 493.104 236.223 493.266 235.583C496.824 225.82 500.382 215.897 503.94 206.135C505.396 202.294 506.528 198.293 507.822 194.292C508.307 192.691 508.63 191.251 506.851 189.97C497.309 183.089 488.738 175.086 480.005 166.924C479.034 165.964 477.902 165.004 476.932 164.204C475.961 163.403 474.991 163.723 474.344 164.684C473.859 165.484 473.374 166.124 473.05 166.924C471.757 169.645 470.624 172.526 469.492 175.246C468.522 177.487 468.36 177.487 466.096 176.687C463.832 175.887 461.568 175.086 459.304 174.286C458.171 173.966 457.201 173.486 456.069 173.326C454.613 173.006 452.996 172.846 452.188 174.606C451.541 175.887 450.57 175.407 449.6 175.246C447.498 174.766 445.557 174.606 443.778 176.047C443.293 176.527 442.322 176.687 441.675 176.527C436.338 176.367 436.177 176.367 433.912 181.168C433.427 182.288 432.942 183.409 432.457 184.689C427.929 196.212 423.239 207.575 418.872 219.098C415.961 226.46 413.535 233.982 410.947 241.504C410.786 241.984 410.3 242.464 409.977 242.945C409.492 242.464 409.007 242.144 408.683 241.664C405.287 235.903 400.273 232.062 394.289 229.181C388.953 226.62 384.262 223.259 380.219 218.938C373.589 211.896 365.502 206.935 356.284 204.054C353.696 203.254 351.108 202.134 348.521 201.173C347.389 200.693 346.742 200.053 346.58 198.613C346.095 195.252 345.125 192.051 344.639 188.69C344.478 187.41 344.478 185.809 345.125 184.689C346.742 181.328 347.227 177.807 347.712 174.126C348.197 170.765 348.521 167.404 349.329 164.043C350.462 159.402 350.138 159.882 354.505 159.882C360.165 159.882 365.179 157.962 368.737 153.161C370.677 150.6 371.324 147.719 368.898 144.518C365.987 140.837 363.561 136.836 360.974 132.995C360.003 131.715 359.842 130.435 360.327 128.834C361.782 124.513 362.591 120.032 361.459 115.391C360.489 111.389 360.65 107.708 363.4 104.508C363.4 104.348 363.561 104.348 363.561 104.188C365.017 100.987 364.694 98.426 362.268 95.5452C359.357 92.1843 355.96 88.6634 357.578 83.382C357.901 82.1016 357.901 80.6613 357.578 79.2209C356.769 75.0598 359.033 72.9792 362.429 71.3788C364.694 70.2585 366.958 69.1382 369.222 68.0179C370.677 67.2177 372.133 66.5775 373.588 65.6172C377.793 62.7365 380.058 58.7354 379.249 53.614C378.764 50.4132 377.793 47.2123 376.823 44.1715C375.529 39.6903 374.074 35.3692 372.78 30.888C371.809 27.5271 370.839 24.3262 368.413 21.7656C364.37 17.2844 359.842 13.4433 354.02 11.5228C348.683 9.76235 343.669 7.20167 339.302 3.84077C334.451 1.44013 329.922 0.159791 325.07 -0.000251492C319.41 -0.160294 313.911 1.12005 308.736 3.36064C301.135 6.88158 293.372 8.48201 285.124 8.32197C274.612 8.16193 265.879 12.4831 258.924 20.1651C255.852 23.526 252.94 27.047 250.191 30.7279C244.854 37.9299 238.708 44.1715 231.107 49.1329C229.328 50.2532 227.549 51.6935 225.932 52.9739C218.654 58.5754 214.449 65.9373 212.67 74.7397C212.509 75.86 212.185 76.9803 212.024 78.1006C211.377 85.9427 208.142 92.5044 202.643 98.266C200.541 100.347 198.6 102.747 196.821 105.308C194.072 109.309 193.748 113.79 195.851 118.271C198.115 122.752 201.511 126.113 206.525 127.394C208.951 128.034 211.538 128.194 214.126 128.194C216.875 128.354 219.301 128.674 221.565 130.595C223.83 132.675 226.741 133.155 229.814 132.675C233.048 132.195 235.959 130.915 238.547 128.994C240.649 127.394 243.075 127.554 244.692 129.634C246.957 132.675 248.412 135.876 247.927 139.717C247.603 142.118 247.442 144.518 247.118 146.759C246.471 150.92 246.148 155.241 243.884 159.082C242.266 161.963 242.266 161.963 238.87 161.483C236.283 161.163 233.695 161.163 232.563 163.723C231.431 166.444 229.49 166.604 227.064 166.764C221.404 166.924 215.905 167.244 210.245 167.564C206.04 167.724 201.673 169.005 197.468 167.244C196.013 166.764 194.395 167.404 193.91 168.685C192.778 171.405 190.837 170.925 188.573 170.445C187.118 170.125 185.5 169.965 184.045 169.805C179.031 169.165 174.503 170.605 170.783 174.126C170.298 174.606 169.813 174.926 169.328 175.407C166.74 177.967 163.506 179.408 159.948 180.368C157.683 181.008 155.258 181.648 152.993 182.288C146.848 184.209 142.158 187.73 139.085 193.331C138.438 194.452 137.791 195.412 137.144 196.692C134.88 201.814 130.837 204.854 125.662 206.455C120.971 207.895 116.281 209.496 111.43 210.936C103.02 213.337 95.257 216.858 89.92 224.22C86.8472 228.541 82.1571 230.781 76.9818 231.421C74.7177 231.742 72.4535 231.902 70.1893 232.062C62.4265 232.542 55.1488 234.142 48.1945 237.823C44.96 239.584 41.5637 241.024 38.3292 242.624C33.4774 244.705 29.4342 247.586 27.6552 252.707C26.1997 257.028 23.4503 260.389 20.0541 263.27C16.4961 266.471 12.9381 269.672 9.38013 273.033C7.43941 274.793 5.49869 276.714 3.7197 278.634C0.646891 281.995 -0.646922 285.996 -0.323469 290.477C-0.161742 294.318 0.808618 297.999 2.42588 301.36C5.33696 307.282 8.40977 313.203 11.6443 319.125C13.585 322.806 16.8196 325.367 20.3775 327.447C22.6417 328.727 24.9059 329.848 27.1701 330.808C39.1378 335.289 49.8118 342.011 60.0006 349.693C66.1462 354.334 72.6152 358.495 79.246 362.496C83.6126 365.217 88.3027 367.778 93.3162 369.058C97.1977 370.178 100.594 369.538 103.343 366.497C104.475 365.217 105.607 365.057 107.225 365.697C114.017 368.258 120.972 368.578 127.764 366.017C133.586 363.777 139.408 361.696 144.907 358.655C149.435 356.095 153.964 354.814 158.977 355.935C161.241 356.415 163.344 356.735 165.608 357.055C166.093 358.975 166.417 360.896 166.902 362.977C166.902 363.297 167.064 363.457 167.064 363.777C169.975 377.22 172.401 390.664 171.915 404.428C171.754 408.589 171.754 412.75 171.754 416.911C171.915 426.834 174.018 436.436 175.473 446.039C177.414 459.002 177.738 471.806 176.12 484.769C174.988 493.091 173.694 501.413 174.341 509.896C174.665 514.217 174.988 518.698 175.473 523.019C175.959 527.82 175.959 532.622 174.341 537.263C172.239 543.665 171.268 550.227 171.592 556.948C171.754 561.91 172.077 567.031 172.401 571.992C172.886 578.714 172.724 585.276 171.268 591.838C169.975 596.959 169.489 597.279 164.314 597.279C118.384 597.279 72.4535 597.119 26.5231 597.119C25.7145 597.119 25.0676 597.119 24.259 597.279C23.9355 597.279 23.6121 597.759 23.6121 597.919C23.6121 598.239 23.9355 598.719 24.0972 598.719C25.5528 598.879 26.8466 599.039 28.3021 599.039C58.545 599.039 88.7879 599.2 119.031 599.2C176.929 599.2 234.665 599.2 292.563 599.2C292.563 599.36 292.563 599.68 292.563 599.84C380.543 599.84 468.522 599.84 556.501 599.84C557.795 599.84 559.089 599.84 560.383 599.68C560.706 599.68 561.03 599.039 561.191 598.719C562 598.879 561.515 598.239 561.191 598.239ZM392.996 441.237C390.246 445.239 387.82 449.72 384.586 453.241C375.044 463.803 362.915 467.164 349.006 465.404C341.567 464.444 334.774 462.043 327.982 459.002C319.734 455.321 315.367 448.759 312.618 440.757C311.971 438.997 312.456 438.517 314.397 438.357C315.852 438.357 317.146 438.517 318.601 438.517C330.084 438.677 341.405 438.837 352.887 438.997V438.837C365.179 438.997 377.47 439.317 389.923 439.477C390.732 439.477 391.378 439.477 392.187 439.477C393.319 439.797 393.643 440.437 392.996 441.237ZM274.612 371.939C276.067 370.499 276.229 370.659 277.199 372.579C281.404 381.061 285.609 389.544 289.814 397.866C295.96 410.349 302.105 422.672 308.251 435.156C308.898 436.596 309.545 438.197 310.03 439.797C312.294 446.039 314.558 452.12 319.895 456.602C320.219 456.922 320.219 457.402 320.38 457.882C320.057 458.042 319.733 458.202 319.248 458.202C315.529 458.362 311.809 458.522 308.251 458.682C291.593 459.002 274.935 459.162 258.277 459.482C244.369 459.802 230.299 460.283 216.39 460.923C212.024 461.083 207.819 461.883 203.452 462.203C201.997 462.523 201.673 462.203 201.997 460.603C204.261 452.28 204.908 443.798 205.393 435.316C206.04 426.353 206.848 417.231 207.334 408.269C207.819 400.587 207.98 392.905 208.304 385.222C208.304 384.262 208.304 383.142 208.304 382.182C208.466 376.58 208.142 376.9 213.479 377.7C224.477 378.981 235.474 380.101 246.471 381.221C252.455 381.862 257.792 380.421 262.482 376.58C263.614 375.62 265.555 375.46 267.011 375.14C270.245 374.66 272.671 373.699 274.612 371.939ZM268.304 369.218C268.79 368.898 268.951 368.418 269.275 368.418C269.437 368.418 270.083 368.898 269.922 369.058C269.76 369.378 269.437 369.698 269.113 370.018C269.275 369.858 268.79 369.538 268.304 369.218ZM270.892 349.853C272.995 350.813 273.965 352.254 274.935 354.014C286.903 378.661 298.709 403.467 310.677 428.114C310.839 428.274 311 428.594 311 428.754C311.162 429.554 311.324 430.835 311.162 430.995C310.192 431.315 309.221 431.315 308.574 430.194C308.251 429.554 307.927 428.914 307.442 428.274C296.607 406.508 285.933 384.742 275.097 362.977C274.45 361.696 274.127 360.096 273.641 358.655C272.833 355.935 271.862 353.054 270.892 349.853ZM272.833 363.777C272.671 363.937 272.671 363.937 272.509 364.097L272.348 363.937L272.509 363.777C272.671 363.617 272.671 363.617 272.833 363.777ZM271.701 360.416C271.377 360.896 271.054 361.216 270.569 361.696C270.569 361.696 270.083 361.536 269.922 361.536C270.407 361.056 270.73 360.736 271.216 360.256C271.377 360.256 271.539 360.416 271.701 360.416ZM205.393 464.124C210.245 463.483 215.258 462.843 220.11 462.683C231.754 462.203 243.399 461.883 255.205 461.723C270.892 461.403 286.741 461.243 302.429 460.923C309.383 460.763 316.337 460.283 323.292 459.962C324.1 459.962 325.07 460.122 325.879 460.443C327.335 461.083 328.79 461.883 330.246 462.683C330.246 462.843 330.246 463.003 330.246 463.323C328.79 463.483 327.496 463.643 326.041 463.803C302.267 464.924 278.332 465.724 254.396 465.564C239.841 465.404 225.123 465.564 210.568 465.564C207.495 465.564 204.422 465.884 201.35 465.564C202.643 464.924 203.937 464.284 205.393 464.124ZM396.715 434.516C397.686 434.516 399.465 433.875 399.626 435.316C399.788 436.916 398.009 437.076 396.877 437.236C395.583 437.396 394.289 437.396 393.157 437.396C380.219 437.396 367.281 437.396 354.343 437.396C354.343 437.236 354.343 437.076 354.343 437.076C340.92 436.916 327.658 436.756 314.235 436.596C312.779 436.596 311.485 436.756 310.839 434.996C310.515 433.875 310.677 433.395 311.971 433.235C312.132 433.235 312.294 433.235 312.294 433.235C325.879 433.395 339.464 433.715 353.049 433.875C367.605 434.196 382.16 434.196 396.715 434.516ZM365.502 429.554C365.502 431.635 365.34 431.955 363.076 431.955C360.974 431.955 359.033 431.955 356.931 431.955C354.828 431.795 354.02 431.315 353.858 429.394C353.211 423.793 353.211 418.351 357.739 413.87C358.71 413.07 359.357 411.95 360.165 410.989C362.429 407.788 363.4 404.268 362.591 400.267C362.106 397.546 361.459 394.825 361.136 392.104C360.65 388.743 361.297 385.703 363.561 382.982C364.047 395.625 364.694 408.269 365.179 421.072C365.179 423.793 365.34 426.674 365.502 429.554ZM366.958 374.66C360.003 379.941 357.416 386.823 359.518 395.305C360.003 397.386 360.165 399.466 360.489 401.707C360.974 405.228 359.842 408.589 357.416 411.149C352.241 416.271 350.462 422.352 351.755 429.394C352.241 431.795 351.917 431.955 349.491 431.955C347.065 431.955 347.065 431.795 347.227 429.234C347.227 428.914 347.227 428.434 347.389 427.474C347.551 424.593 346.904 421.072 344.963 418.031C342.86 414.51 340.273 411.149 338.009 407.628C335.906 404.588 333.48 401.547 331.701 398.186C330.246 395.625 329.114 392.745 328.467 389.704C327.335 385.062 328.952 381.221 333.157 378.821C334.936 377.861 336.715 376.74 338.332 375.62C341.728 373.379 344.478 370.499 346.58 366.978C349.006 362.977 349.168 358.975 347.065 354.814C345.933 352.734 344.963 350.493 344.154 348.253C342.537 343.131 343.346 338.33 346.58 334.009C348.521 331.448 349.976 328.727 350.947 325.687C351.432 324.246 352.079 322.806 353.049 321.686C355.96 317.684 358.71 313.683 361.944 309.842C365.826 305.361 370.677 303.441 376.661 305.201C382.969 307.122 386.688 311.443 387.82 317.845C388.467 320.885 387.659 323.606 386.041 326.167C384.424 328.567 382.483 330.808 380.704 332.889C378.279 335.609 375.691 338.01 373.427 340.571C370.354 344.092 369.707 348.093 371.809 352.574C373.103 355.455 373.912 358.495 374.721 361.536C375.691 365.217 374.721 368.258 371.971 370.819C370.192 372.099 368.575 373.379 366.958 374.66ZM353.696 295.759C353.858 284.556 354.505 276.233 356.122 268.071C356.445 266.311 357.092 264.39 357.739 262.63C358.063 261.83 359.195 260.389 359.518 260.549C360.489 260.869 361.459 261.67 361.944 262.47C363.723 265.03 364.208 268.231 363.885 271.112C362.915 282.315 361.621 293.518 360.65 304.881C360.327 307.922 358.871 310.002 357.092 312.243C356.769 312.723 356.122 312.883 355.637 313.203C355.475 312.723 355.152 312.243 355.152 311.923C354.666 305.521 354.02 299.28 353.696 295.759ZM380.058 302.801C381.675 295.759 382.483 288.717 385.718 282.155C386.365 280.715 387.335 279.274 389.114 278.954C391.702 278.474 393.319 279.754 393.319 282.795C393.157 283.595 392.996 285.036 392.349 286.316C389.276 292.238 386.203 298.159 382.969 303.921C382.645 304.401 381.513 305.041 381.351 304.881C380.704 304.401 380.058 303.441 380.058 302.801ZM467.713 343.451C472.08 349.373 475.638 355.455 474.344 363.137C473.697 366.337 472.889 369.538 472.403 372.739C472.08 375.14 471.918 377.54 472.242 379.781C473.535 387.303 471.433 393.385 465.934 398.506C462.7 401.547 459.789 404.908 456.716 407.949C453.967 410.509 451.056 413.07 448.144 415.471C444.425 418.671 440.058 419.312 435.368 418.351C433.589 418.031 431.972 417.551 430.193 417.071C420.489 414.03 410.786 410.829 401.244 407.789C399.626 407.308 397.847 406.508 396.23 405.868C389.923 403.467 386.688 398.826 385.071 392.584C383.777 387.303 382.16 382.182 380.704 377.06C379.087 371.299 379.896 365.857 383.939 361.536C387.82 357.535 390.408 352.894 391.702 347.612C392.834 342.651 395.422 338.65 399.95 335.929C403.993 333.529 407.713 330.328 411.594 327.607C412.726 326.807 413.858 326.007 414.99 325.206C420.813 321.045 427.12 321.365 433.589 322.806C434.559 322.966 434.883 323.606 434.559 324.406C433.104 327.767 431.81 331.128 430.354 334.489C429.869 335.609 429.061 335.929 427.929 335.929C422.43 335.609 418.872 338.65 415.961 342.651C413.858 345.532 411.756 348.413 409.977 351.293C407.228 355.935 406.581 360.896 408.521 365.857C413.212 377.701 421.136 386.023 433.912 389.384C436.177 390.024 438.764 389.864 442.161 390.344C444.91 389.864 448.63 389.224 452.349 388.423C455.746 387.623 458.171 385.543 460.112 382.662C463.994 376.74 466.743 370.339 468.845 363.457C469.816 360.256 468.845 357.375 466.42 355.134C464.802 353.694 464.479 352.094 464.964 350.013C465.449 347.933 465.773 345.852 466.096 343.771C466.258 342.971 467.066 342.651 467.713 343.451ZM424.694 366.017C429.222 372.739 435.853 376.1 443.778 377.06C446.204 377.38 448.63 377.38 451.055 377.22C455.584 376.9 459.142 374.82 460.436 370.339C461.729 366.337 462.538 362.336 463.67 358.335C463.832 357.855 464.155 357.535 464.317 357.055C464.641 357.375 465.287 357.535 465.449 357.855C466.581 359.296 467.066 360.896 466.581 362.816C464.641 369.698 461.891 376.1 457.848 382.022C456.231 384.422 453.967 386.023 451.217 386.663C447.659 387.463 443.94 387.943 440.382 388.583C433.427 388.423 427.443 386.023 422.106 381.702C418.063 378.341 414.667 374.5 412.079 370.018C408.36 363.457 408.198 356.895 412.726 350.493C414.99 347.292 417.416 344.252 419.842 341.211C421.298 339.29 423.4 338.49 425.826 338.33C427.767 338.17 428.252 338.65 427.443 340.411C425.988 343.771 424.694 347.132 422.915 350.333C420.166 355.775 421.298 361.056 424.694 366.017ZM494.075 244.225C499.088 247.746 502.97 252.227 504.102 258.309C504.425 260.069 504.264 262.15 503.617 263.91C501.676 270.152 502.161 276.554 502.323 282.955C502.485 286.636 502.323 290.317 501.838 293.838C500.867 299.6 497.956 304.401 493.913 308.562C489.87 312.883 485.18 316.564 480.328 319.925C476.932 322.166 473.697 324.726 470.301 326.807C468.037 328.247 466.905 330.008 466.42 332.568C464.964 340.411 463.508 348.413 461.891 356.255C461.083 360.576 459.95 364.737 458.657 369.058C457.686 372.739 454.775 374.82 451.055 374.98C441.675 375.62 433.266 373.539 427.282 365.857C426.311 364.577 425.341 363.137 424.694 361.696C423.077 358.335 422.915 355.134 424.694 351.614C428.899 342.491 432.942 333.209 436.985 324.086C437.309 323.286 437.632 322.486 437.956 321.686C439.896 317.684 439.896 313.843 438.764 309.522C436.662 301.2 436.177 292.878 437.47 284.396C437.794 281.995 437.794 281.835 440.22 281.835C442.969 281.835 445.88 281.835 448.63 281.835C449.762 281.835 450.247 282.155 450.085 283.435C449.438 287.917 452.026 290.477 455.907 292.078C456.554 292.398 457.201 292.718 458.01 293.038C459.465 293.518 459.465 294.158 458.333 295.118C457.525 295.759 456.716 296.399 456.069 297.039C454.613 298.639 453.158 300.24 451.864 301.84C451.379 302.48 451.217 303.921 451.541 304.081C452.511 304.881 452.996 303.601 453.481 302.961C455.746 300.56 458.01 298.319 460.436 295.919C461.729 294.638 463.185 294.478 464.964 294.958C469.654 296.239 474.344 297.359 479.034 298.479C480.49 298.799 481.945 299.12 483.563 299.28C484.209 299.28 484.856 298.799 485.342 298.479C484.856 297.999 484.371 297.359 483.724 297.199C478.064 295.759 472.403 294.638 466.743 293.198C464.317 292.558 461.891 291.758 459.465 290.957C458.171 290.477 457.201 289.677 456.069 289.037C459.789 289.357 459.951 289.197 460.436 285.036C460.597 283.595 460.921 283.435 462.215 283.595C471.595 285.356 480.975 286.956 490.355 288.557C491.164 288.717 491.811 288.877 492.619 288.877C492.943 288.877 493.428 288.397 493.59 288.077C493.59 287.917 493.266 287.276 493.104 287.276C492.296 286.956 491.487 286.636 490.517 286.476C480.975 284.716 471.271 283.115 461.729 281.195C459.304 280.715 456.878 279.754 454.452 278.794C453.481 278.474 452.673 277.834 451.864 277.194C450.085 275.593 450.247 273.833 452.349 272.552C453.805 271.752 455.422 271.272 456.878 270.792C463.508 269.352 470.301 270.312 476.932 271.272C481.622 271.912 486.15 272.552 490.84 273.193C491.649 273.353 492.619 273.193 493.428 273.193C493.59 273.193 493.913 272.873 493.913 272.712C493.913 272.392 493.913 271.912 493.59 271.752C492.619 271.432 491.649 271.112 490.679 270.952C484.209 269.992 477.902 269.192 471.433 268.391C470.786 268.231 470.139 268.231 469.492 268.231C468.684 268.071 468.037 267.911 468.522 266.791C468.845 266.311 469.007 265.671 469.169 265.03C469.169 263.59 469.331 261.83 467.552 261.189C465.934 260.389 464.641 261.509 463.347 262.31C461.891 263.43 461.891 264.71 462.862 265.991C460.597 264.55 460.597 262.63 462.7 261.509C463.832 260.869 465.287 260.549 466.743 260.389C472.242 260.069 477.902 259.909 483.563 259.909C486.15 259.909 488.738 259.909 491.164 260.229C493.104 260.549 495.045 261.189 496.986 261.67C497.471 261.83 498.28 261.67 498.28 261.509C498.441 261.029 498.603 260.229 498.441 259.909C497.633 258.629 496.662 257.508 495.53 256.388C492.458 253.507 489.223 250.627 485.988 247.586C484.856 246.465 484.048 245.025 483.077 243.745C482.916 243.425 483.077 242.785 483.077 242.304C483.401 242.464 483.886 242.624 484.209 242.945C484.695 243.425 485.018 243.905 485.503 244.385C487.444 245.985 488.9 245.985 490.679 244.065C492.296 243.425 493.104 243.585 494.075 244.225ZM455.099 288.557C455.26 288.717 455.584 289.037 455.746 289.197C452.834 287.917 451.864 286.476 452.188 284.076C452.511 282.155 453.967 281.355 455.746 282.155C455.907 282.155 455.907 282.955 455.746 283.115C452.834 285.356 452.673 285.996 455.099 288.557ZM455.907 286.156C456.231 285.836 456.554 285.356 456.878 285.356C457.363 285.356 457.686 285.836 458.495 286.316C457.848 286.796 457.363 287.276 457.201 287.276C456.716 286.956 456.392 286.476 455.907 286.156ZM465.449 264.87C465.449 264.71 465.934 264.07 466.258 263.91C466.581 263.91 467.066 264.39 467.228 264.71C467.39 265.03 466.905 265.511 466.743 266.151C466.096 265.511 465.449 265.351 465.449 264.87ZM486.635 241.984C486.959 241.824 487.444 241.344 487.767 241.344C488.414 241.664 489.061 242.144 489.708 242.624C489.708 242.624 489.061 243.425 488.576 244.385C487.767 243.425 487.121 242.624 486.635 241.984ZM470.948 176.847C472.242 173.966 473.374 171.085 474.668 168.205C475.476 166.604 475.8 166.604 477.093 167.885C481.622 172.046 486.15 176.207 490.84 180.368C493.428 182.768 495.854 185.169 498.441 187.41C497.795 187.25 496.986 187.25 496.339 187.09C488.576 184.689 480.975 182.128 473.212 179.728C472.727 179.568 472.242 179.408 471.757 179.248C470.463 178.767 470.463 177.967 470.948 176.847ZM452.188 179.248C454.128 174.446 453.643 175.246 457.848 176.687C472.727 181.488 487.444 186.449 502.323 191.251C506.043 192.531 506.204 192.211 504.749 196.212C500.059 209.656 495.207 223.099 490.517 236.383C489.546 238.943 489.546 238.943 486.797 238.623C482.43 238.303 480.005 241.664 481.945 245.505C482.754 247.106 483.886 248.386 485.18 249.666C487.767 252.227 490.517 254.628 493.266 257.188C493.59 257.508 493.751 257.989 493.913 258.469C493.59 258.469 493.266 258.629 492.781 258.629C485.988 258.469 479.358 258.309 472.565 258.309C469.978 258.309 467.552 258.629 464.964 259.109C460.274 259.909 458.657 262.79 460.274 267.271C460.759 268.551 460.112 268.711 459.142 268.871C457.039 269.352 454.937 269.672 452.835 270.472C448.791 272.072 447.983 274.153 449.438 278.154C449.923 279.434 449.438 279.754 448.468 279.914C446.689 280.074 444.91 279.914 443.131 279.914C438.764 279.914 434.559 279.914 430.193 279.914C430.193 279.754 430.193 279.594 430.193 279.594C424.694 279.594 419.195 279.594 413.858 279.594C411.109 279.594 410.947 279.434 412.079 276.874C415.152 269.352 418.387 261.67 421.46 254.148C431.648 229.181 441.999 204.214 452.188 179.248ZM435.368 286.316C435.045 288.077 434.883 289.677 434.559 291.438C432.619 290.637 432.619 288.557 431.648 286.956C430.84 285.836 430.193 284.556 429.546 283.435C429.061 282.635 429.222 281.995 430.354 281.995C430.516 281.995 430.678 281.995 430.678 281.995C435.368 281.515 435.368 281.515 435.368 286.316ZM443.94 179.568C444.425 178.767 445.233 177.647 446.042 177.487C447.174 177.327 448.63 177.487 449.6 178.127C449.923 178.287 449.6 180.208 449.115 181.168C440.382 202.614 431.487 224.059 422.753 245.505C418.71 255.108 414.829 264.87 410.786 274.473C410.462 275.433 409.977 276.393 409.492 277.194C409.33 277.514 408.683 277.834 408.198 278.154C407.875 277.514 407.228 277.034 407.228 276.554C407.389 275.113 407.713 273.513 408.198 272.232C410.947 264.39 413.535 256.548 416.446 248.706C424.371 228.061 432.457 207.415 440.543 186.77C441.675 184.369 442.807 181.968 443.94 179.568ZM427.282 202.134C429.708 196.212 432.134 190.29 434.559 184.369C435.206 182.929 435.853 181.648 436.5 180.368C437.309 178.927 438.603 178.767 440.058 179.248C440.382 179.408 440.705 179.728 441.19 180.048C440.867 181.008 440.543 181.648 440.22 182.288C429.222 208.375 419.357 234.942 409.492 261.509C408.36 264.55 407.389 267.751 406.419 270.792C406.257 271.432 406.096 272.392 405.61 272.873C405.287 273.193 404.478 273.353 403.993 273.353C403.831 273.353 403.508 272.552 403.508 272.232C403.67 271.272 403.993 270.312 404.155 269.352C410.786 246.305 418.225 223.899 427.282 202.134ZM345.448 208.215C345.772 207.255 345.771 206.295 345.933 205.174C346.095 203.574 346.742 203.414 348.197 204.054C351.432 205.335 354.666 206.455 357.901 207.575C365.017 210.136 371.486 213.977 376.661 219.418C381.675 224.7 387.335 229.021 393.966 232.062C399.788 234.782 404.155 238.943 407.228 244.545C408.198 246.305 408.521 247.586 407.875 249.506C405.772 255.908 403.993 262.47 402.052 269.032C401.729 269.992 401.567 270.952 401.405 271.912C401.244 273.513 401.244 274.953 403.346 275.273C403.831 275.273 404.478 275.913 404.478 276.073C403.993 279.274 407.228 279.114 408.521 280.875C408.845 281.355 410.139 281.515 410.947 281.515C414.991 281.675 419.034 281.675 423.077 281.675C424.856 281.675 426.15 282.155 427.12 283.755C429.384 287.757 431.972 291.758 434.236 295.759C434.559 296.399 434.721 297.199 434.883 297.839C435.691 302.48 436.338 306.962 437.147 311.603C437.632 314.164 437.632 316.564 436.662 318.965C436.177 320.245 435.368 320.725 434.074 320.405C432.457 320.085 430.84 319.925 429.222 319.605C424.856 318.645 420.813 319.445 417.093 321.365C414.99 322.486 412.888 323.766 410.947 325.206C406.257 328.407 401.729 331.928 397.039 335.129C394.128 337.21 392.025 339.77 390.893 342.971C390.085 345.052 389.276 347.292 388.791 349.373C387.982 352.734 386.365 355.775 383.777 358.015C379.249 362.176 377.47 367.458 377.955 373.379C378.117 376.26 379.249 378.981 380.058 381.702C381.19 385.863 382.16 390.024 383.454 394.025C384.101 396.265 385.556 398.346 386.527 400.427C386.688 400.907 386.688 401.387 386.85 401.867C386.365 402.027 385.88 402.187 385.395 402.027C383.454 401.867 382.16 400.747 381.19 399.146C378.279 394.345 375.044 389.544 372.456 384.582C371.001 381.862 370.516 378.661 369.707 375.62C369.545 375.14 370.192 374.34 370.677 373.859C371.809 372.739 373.265 371.779 374.235 370.499C376.823 367.298 377.632 363.777 376.5 359.776C375.691 356.735 374.721 353.694 373.427 350.813C371.809 347.292 372.456 344.092 374.721 341.371C376.823 338.97 379.087 336.73 381.19 334.489C383.13 332.408 385.233 330.328 386.85 327.927C391.217 321.525 390.893 314.804 386.203 308.722C384.101 305.841 384.101 306.001 385.88 302.961C388.306 298.639 390.732 294.478 392.996 289.997C394.128 287.757 394.936 285.356 395.583 282.955C396.23 280.074 395.098 277.674 392.834 276.554C390.408 275.433 387.335 275.913 385.556 278.154C384.262 279.914 383.13 281.835 382.645 283.755C381.19 288.397 380.058 293.198 378.925 297.999C378.764 298.319 378.764 298.799 378.764 299.12C377.793 302.64 378.117 302.48 374.882 302C371.163 301.52 367.766 302.16 364.694 304.081C363.4 304.881 363.076 304.241 363.238 303.121C363.885 297.359 364.694 291.598 365.179 285.836C365.664 280.395 365.987 274.793 366.149 269.352C366.149 266.951 365.502 264.71 364.855 262.31C364.532 261.189 363.723 260.069 362.915 259.109C360.974 256.868 358.548 256.868 356.931 259.589C355.799 261.509 355.152 263.75 354.666 265.991C352.726 274.473 352.079 283.115 351.755 291.918C352.402 298.799 353.049 305.681 353.858 312.563C354.181 314.964 354.02 317.044 352.402 318.965C351.755 319.765 351.27 320.725 350.785 321.525C349.815 322.966 349.491 323.126 348.359 321.525C343.669 316.084 341.405 309.522 340.758 302.48C339.302 287.596 338.009 272.712 336.877 257.829C335.906 246.946 335.098 236.063 334.127 225.18C333.965 224.22 333.965 223.099 333.965 222.139C333.965 218.778 336.23 216.538 339.626 216.858C341.89 217.018 343.346 216.217 344.154 214.297C344.154 212.536 344.801 210.456 345.448 208.215ZM343.022 193.971C344.316 199.413 344.154 205.014 342.86 210.456C342.537 211.736 342.052 212.857 341.567 213.977C341.081 214.937 340.435 215.577 338.979 215.257C337.362 214.297 335.906 215.257 334.612 216.377C332.186 218.458 329.599 219.738 326.203 219.258C325.394 219.098 324.585 219.098 323.938 219.258C319.41 220.539 314.882 220.058 310.515 218.298C309.221 217.818 307.604 217.978 305.987 218.138C304.208 218.298 303.076 217.658 302.429 216.057C301.782 214.457 301.297 212.696 300.811 211.096C300.488 210.136 299.841 209.176 298.547 210.136C297.092 211.416 295.313 210.936 293.857 210.616C288.52 209.496 284.801 206.295 282.698 201.333C281.566 198.453 280.596 195.412 279.787 192.371C278.17 185.969 274.612 181.008 269.275 177.167C268.143 176.367 267.011 175.567 265.879 174.606C261.835 171.565 259.409 167.564 258.277 162.763C257.469 158.922 256.822 155.081 256.013 151.24C255.852 150.12 255.852 149.32 256.822 148.519C259.086 146.439 259.895 143.558 260.38 140.837C261.35 135.876 262.159 130.915 263.129 125.953C263.291 125.473 263.614 124.993 263.938 124.513C264.261 124.833 264.585 125.313 264.746 125.633C267.496 131.715 269.113 138.277 270.083 144.838C270.407 147.399 271.054 149.96 271.539 152.68C272.671 158.122 275.744 162.443 280.272 165.484C284.154 168.045 287.873 170.445 291.108 173.806C292.887 175.727 295.313 176.527 298.062 176.367C299.194 176.207 300.326 176.207 301.458 176.207C304.693 176.047 307.766 176.847 310.353 178.927C312.132 180.208 313.911 181.328 315.69 182.448C317.631 183.569 319.734 183.729 321.513 182.448C326.364 178.927 331.701 178.927 337.2 180.208C338.817 180.528 340.435 180.688 342.052 181.008C343.022 181.168 343.507 181.968 342.86 182.608C340.435 186.129 342.052 189.97 343.022 193.971ZM347.227 161.003C346.418 165.804 345.61 170.605 344.801 175.407C344.316 178.447 344.316 178.607 341.081 178.287C338.494 178.127 336.068 177.647 333.48 177.327C329.437 176.847 325.556 177.167 322.159 179.728C319.895 181.328 317.631 181.328 315.529 179.728C310.03 175.246 304.046 173.006 296.93 173.966C295.151 174.286 293.696 173.326 292.563 172.046C289.491 168.685 285.933 166.284 282.051 163.883C277.523 161.003 274.773 157.002 273.641 151.72C272.833 148.199 272.348 144.518 271.701 140.997C270.569 134.116 268.143 127.714 265.717 121.152C270.245 125.793 274.935 130.595 279.464 135.236C284.154 140.037 289.005 144.678 293.696 149.48C295.636 151.4 297.415 153.481 298.386 156.201C299.356 158.762 301.297 160.523 304.046 161.483C310.353 163.403 316.337 162.923 321.998 159.562C324.909 157.802 326.849 155.241 328.143 152.2C328.79 150.44 329.599 148.679 331.701 148.199C334.289 147.559 337.038 147.239 339.464 148.359C340.435 148.839 341.243 149.8 341.567 150.76C342.537 153.801 343.669 156.682 346.418 158.762C347.227 159.082 347.389 160.202 347.227 161.003ZM303.723 151.4C309.383 150.44 315.205 149.8 321.027 149.16C322.483 148.999 324.1 148.839 325.556 148.679C327.173 148.519 327.335 148.839 326.849 150.28C324.747 156.201 320.219 159.242 314.073 160.042C313.103 160.202 312.132 160.202 311 160.202V160.363C309.06 160.042 306.957 159.882 305.016 159.242C303.884 158.922 302.752 158.122 301.782 157.322C299.194 154.761 299.841 152.04 303.723 151.4ZM349.329 151.4C349.168 152.68 349.006 153.961 348.844 155.081C348.521 156.361 347.55 156.682 346.742 155.561C345.933 154.601 345.286 153.481 344.801 152.36C343.669 149.32 343.992 148.839 347.227 148.839C349.491 148.999 349.653 149.16 349.329 151.4ZM347.874 146.759C345.286 146.919 342.699 147.719 340.111 146.119C338.656 145.319 336.553 145.158 334.936 145.479C325.394 146.439 315.852 147.559 306.148 148.839C304.046 149.16 301.944 149.8 300.003 150.6C298.871 151.08 298.224 151.08 297.415 150.12C288.197 140.677 278.817 131.235 269.437 121.792C268.628 120.832 267.819 119.872 267.011 118.911C265.555 116.831 266.525 114.43 268.951 114.43C273.965 114.43 279.14 114.59 284.154 114.91C286.094 115.07 288.035 116.031 289.814 116.991C294.181 119.232 298.709 119.872 303.399 117.951C305.34 117.151 307.442 117.311 309.383 118.111C313.911 119.872 318.278 119.552 322.483 116.831C323.13 116.351 323.777 116.191 324.585 115.711C326.526 114.59 328.467 114.43 330.407 115.711C333.642 117.791 336.877 117.631 340.273 116.351C343.184 115.23 346.095 114.75 349.168 115.23C352.402 115.711 355.475 114.91 357.901 111.71C359.518 118.431 359.68 124.513 357.092 130.274C355.96 132.995 354.343 135.716 353.049 138.437C352.079 140.517 351.27 142.598 350.462 144.678C350.138 146.119 349.329 146.599 347.874 146.759ZM367.119 150.92C366.796 151.88 366.149 152.68 365.502 153.481C362.268 157.162 357.901 158.442 353.211 158.602C350.947 158.602 350.462 158.122 350.785 155.881C350.947 155.081 351.108 154.121 351.27 153.321C351.917 148.679 351.917 148.679 356.607 148.039C358.224 147.879 359.842 147.719 361.944 147.719C362.753 147.719 363.885 147.879 365.017 147.719C367.281 147.239 368.251 148.359 367.119 150.92ZM364.37 143.558C365.34 144.998 364.37 145.318 363.238 145.479C361.297 145.639 359.518 145.799 358.386 145.799C351.594 146.119 351.594 146.119 354.181 140.677C354.99 138.917 355.96 137.156 356.931 135.396C357.416 134.596 358.063 134.276 358.548 135.236C360.65 137.957 362.429 140.677 364.37 143.558ZM356.607 93.1446C357.901 94.9051 359.033 96.6655 360.327 98.266C361.459 99.7063 361.944 100.987 361.136 102.747C360.327 104.828 359.518 106.748 357.739 108.189C356.931 108.829 356.284 109.629 355.799 110.429C354.181 112.99 351.755 113.63 349.168 113.15C346.095 112.51 343.346 112.99 340.596 114.11C337.2 115.391 333.804 115.711 330.407 113.63C328.628 112.51 326.526 112.67 324.585 113.63C322.806 114.43 321.189 115.23 319.572 116.191C317.146 117.471 314.72 117.791 312.294 116.831C308.413 115.23 304.693 115.23 300.811 116.671C298.547 117.631 296.283 117.311 294.019 116.511C293.372 116.351 292.725 116.191 292.24 115.871C287.226 112.67 281.728 112.67 276.067 112.67C274.127 112.67 272.186 112.35 270.407 112.51C269.113 112.51 267.496 112.67 266.364 113.31C264.585 114.43 264.261 113.63 263.776 112.19C263.129 110.109 262.321 108.189 261.35 106.268C260.703 104.828 261.027 104.188 262.159 103.387C264.261 102.107 266.202 100.827 268.466 99.8664C278.978 94.9051 290.138 92.0243 301.782 90.7439C308.413 89.9437 315.043 88.9835 321.836 88.1833C324.909 87.8632 328.143 87.5431 331.378 87.383C337.523 87.223 343.346 88.3433 349.006 90.4239C351.108 91.2241 352.887 93.6247 355.637 92.3444C355.637 91.8642 356.284 92.6645 356.607 93.1446ZM236.929 127.714C234.504 129.314 231.754 130.435 228.843 130.755C226.741 130.915 224.8 130.435 223.183 128.994C220.757 126.754 218.007 126.113 214.773 126.113C212.832 126.113 210.73 125.953 208.789 125.633C205.069 124.993 202.32 122.913 200.056 120.032C196.66 115.711 196.336 110.589 199.247 105.948C200.056 104.508 201.188 103.387 202.32 102.107C203.937 100.347 205.555 98.586 207.172 96.6655C211.377 92.1843 213.479 86.7429 214.288 80.6613C214.611 77.7805 215.096 74.8997 215.905 72.179C217.684 65.4572 221.242 59.6957 226.741 55.2145C228.681 53.7741 230.46 52.1737 232.563 50.8933C240.487 45.6119 247.118 39.0502 252.617 31.5282C255.205 28.0072 257.954 24.8064 260.865 21.6055C267.658 13.9235 276.067 10.0824 286.418 10.2425C294.504 10.4025 302.105 8.8021 309.383 5.4412C314.073 3.2006 319.087 1.76022 324.424 1.92026C329.275 1.92026 333.804 3.04056 337.685 6.08137C342.214 9.60231 347.065 12.003 352.402 13.7634C357.901 15.5239 362.268 18.8848 365.987 23.2059C367.766 25.2865 368.898 28.0072 369.707 30.5679C371.648 36.0093 373.265 41.6108 374.882 47.0523C375.367 48.8128 375.853 50.4132 376.338 52.1737C377.47 57.4551 376.014 61.7762 371.324 64.4969C367.443 66.8976 363.238 68.8181 359.195 70.8987C358.063 71.3788 357.901 70.8987 357.901 69.9384C357.901 69.4583 358.063 68.9781 358.063 68.498C358.224 64.9771 357.092 62.4164 353.373 61.2961C350.785 60.4959 348.521 59.0555 346.095 57.9352C344.801 57.295 344.639 56.4948 345.61 55.2145C347.874 52.0136 349.006 48.4927 349.653 44.8117C349.815 43.8514 349.976 42.7311 349.815 41.7709C349.491 38.57 347.227 37.6098 344.478 39.3702C341.081 41.6108 337.362 49.2929 339.949 54.5743C341.081 56.6549 340.758 56.9749 338.494 56.8149C333.157 56.3348 327.82 55.8546 322.645 55.2145C321.513 55.0544 320.38 54.7343 319.248 54.4143C317.793 54.0942 317.793 53.454 318.44 52.1737C319.41 50.0931 320.542 48.0126 320.866 45.932C321.189 44.0115 320.866 41.9309 320.057 40.1705C318.601 36.4895 315.043 36.3294 312.618 39.3702C310.03 42.5711 309.706 47.8525 312.132 51.8536C312.779 52.8138 313.911 53.9341 313.588 54.5743C313.264 55.6946 311.971 56.4948 311 57.135C310.03 57.7752 308.736 58.4153 307.604 58.7354C303.237 59.8557 298.709 60.816 294.181 61.6162C290.138 62.2563 286.094 61.7762 282.051 60.6559C279.464 59.8557 279.302 59.3756 280.757 56.9749C282.86 53.294 283.668 49.4529 282.375 45.4519C282.213 44.8117 281.889 44.3316 281.728 43.6914C281.081 42.251 280.111 41.1307 278.332 40.9707C276.553 40.9707 275.582 42.091 274.773 43.3713C272.833 46.7322 272.348 50.2532 273.48 53.9341C273.803 55.2145 274.45 56.4948 275.097 57.7752C275.582 58.7354 275.259 59.2155 274.45 59.5356C273.641 59.8557 272.833 60.1758 271.862 60.3358C265.393 61.2961 260.218 64.4969 256.175 69.4583C255.852 69.9384 255.366 70.4185 254.881 70.8987C254.234 71.5388 253.749 71.6989 253.102 70.7386C252.455 69.4583 251.647 68.0179 250.676 66.8976C247.765 63.8568 243.56 63.5367 240.326 66.0974C237.576 68.1779 236.606 72.019 237.9 74.8997C239.032 77.4604 242.266 79.0608 245.501 78.7407C246.795 78.5807 247.927 78.1006 249.221 77.9405C249.868 77.7805 250.353 77.7805 251 77.7805C251 78.4207 251.161 79.2209 251 79.861C249.868 83.7021 248.089 87.063 245.016 89.7837C242.266 92.0243 239.517 94.2649 236.768 96.5055C234.827 98.1059 232.886 99.8664 231.269 101.787C227.873 106.108 227.711 110.109 230.622 114.75C232.725 118.111 234.989 121.472 237.415 124.833C238.062 125.793 238.223 126.754 236.929 127.714ZM343.669 53.7741C342.86 55.0544 342.052 55.0544 341.567 53.7741C341.081 52.4937 340.758 51.0534 340.758 49.773C341.081 46.5722 342.375 43.6914 344.801 41.6108C345.286 41.1307 346.095 40.9707 346.742 40.9707C346.904 40.9707 347.227 41.9309 347.389 42.5711C347.389 42.7311 347.389 43.0512 347.389 43.8514C346.904 47.0523 345.771 50.5732 343.669 53.7741ZM316.337 51.2134C315.69 52.3337 314.882 52.4937 313.911 51.5335C311.647 48.8128 311.485 43.8514 313.588 40.9707C315.043 39.2102 316.822 39.2102 317.631 41.2908C318.116 42.4111 318.278 43.6914 318.601 44.8117C318.601 47.2123 317.631 49.2929 316.337 51.2134ZM316.661 56.1747C316.499 56.3348 316.337 56.8149 316.014 56.8149C315.529 56.8149 315.043 56.8149 314.72 56.8149C315.205 56.4948 315.529 56.1747 316.014 55.8546C316.176 55.8546 316.499 56.1747 316.661 56.1747ZM278.332 56.3348C277.685 57.295 276.876 57.295 276.229 56.3348C274.127 52.6538 273.965 48.8128 276.067 44.9717C276.391 44.3316 277.361 43.6914 278.008 43.6914C278.493 43.6914 279.302 44.4916 279.464 45.1318C279.949 46.5722 280.272 48.1726 280.596 49.773C280.434 52.0136 279.787 54.2542 278.332 56.3348ZM251.161 73.6194C250.838 75.0598 247.603 76.5001 244.531 76.5001C241.781 76.5001 240.002 75.5399 239.355 73.4593C238.708 71.5388 239.517 69.1382 241.296 67.6978C243.075 66.0974 245.663 65.9373 247.603 67.2177C249.706 68.498 251.647 72.019 251.161 73.6194ZM241.134 125.153C240.973 124.993 240.649 124.993 240.487 124.833C239.679 124.033 238.87 123.233 238.223 122.272C236.283 119.552 234.342 116.671 232.563 113.79C229.814 109.469 229.975 105.948 233.372 102.107C234.665 100.667 236.121 99.3863 237.576 98.266C239.517 96.6655 241.458 95.0651 243.56 93.4647C249.221 89.1435 253.264 83.8621 255.366 77.3004C256.013 75.2198 257.145 73.1393 258.277 71.2187C260.542 67.2177 264.1 64.9771 268.628 63.3766C273.965 61.6162 279.14 62.5764 284.477 63.3766C289.652 64.1769 294.828 63.8568 300.003 62.7365C305.502 61.4561 311.162 60.1758 316.661 59.2155C326.364 57.6151 335.906 58.0952 345.286 60.816C348.036 61.6162 350.785 62.8965 353.373 64.0168C355.313 64.817 355.96 66.5775 355.799 69.1382C355.475 73.1393 355.313 77.1403 354.99 81.1414C354.828 83.542 354.666 85.9427 354.343 88.3433C354.181 89.4636 353.696 90.2638 352.402 89.6236C342.86 84.9824 332.833 84.6623 322.645 85.9427C312.132 87.223 301.782 88.6634 291.431 90.4239C282.698 91.8642 274.45 94.745 266.525 98.586C265.717 98.9061 264.908 99.3863 264.261 99.8664C261.512 102.107 259.086 103.387 255.528 100.347C252.294 97.7858 247.765 99.2262 244.692 102.587C241.296 106.588 239.841 111.389 239.355 117.471C240.002 119.232 240.811 121.792 241.62 124.353C241.296 124.513 241.134 124.833 241.134 125.153ZM246.795 128.514C245.663 126.914 244.531 125.153 243.399 123.553C241.943 121.152 241.296 118.431 241.458 115.391C241.62 111.71 242.752 108.029 245.178 104.828C248.412 100.347 252.94 99.8664 256.822 103.707C258.439 105.308 259.733 107.548 260.703 109.629C261.674 111.71 262.321 114.11 262.967 116.351C263.129 116.991 263.291 117.791 263.129 118.591C261.674 125.473 260.218 132.355 258.763 139.237C258.439 140.997 257.954 142.598 257.307 144.358C256.822 145.959 256.013 147.559 254.073 147.559C251.808 147.559 251.485 145.319 251 143.718C250.515 141.958 250.353 140.037 250.191 138.117C250.191 134.436 248.736 131.395 246.795 128.514ZM243.237 163.883C247.442 159.082 248.574 153.161 249.382 146.599C250.029 147.239 250.353 147.399 250.515 147.559C254.234 149.48 254.719 152.84 255.043 156.361C255.205 157.962 255.528 159.562 255.852 161.163C257.145 167.724 260.218 173.166 265.879 177.007C266.849 177.647 267.658 178.447 268.628 179.088C273.156 182.288 276.067 186.61 277.523 191.891C278.817 196.052 280.434 200.213 281.889 204.374C282.375 205.655 282.051 206.135 280.434 205.975C273.156 205.014 266.202 202.774 261.027 197.332C257.307 193.491 253.911 189.49 250.838 185.169C247.603 180.528 245.178 175.407 242.428 170.445C241.296 168.205 241.296 166.124 243.237 163.883ZM237.415 163.403C238.385 163.563 239.679 163.403 239.679 165.004C239.679 166.284 238.87 167.084 237.415 166.764C237.253 166.764 237.091 166.764 237.091 166.764C235.959 166.444 234.18 167.244 234.18 165.484C234.342 164.044 235.797 163.403 237.415 163.403ZM236.768 169.005C236.606 169.005 236.606 169.165 236.444 169.165C236.283 169.165 236.121 169.005 235.959 169.005C236.121 169.005 236.121 168.845 236.283 168.845C236.444 168.845 236.606 169.005 236.768 169.005ZM206.687 169.965C214.288 169.325 221.889 169.005 229.49 168.685C230.784 168.685 231.916 168.685 232.886 169.805C234.342 171.405 236.444 171.726 238.547 170.925C239.841 170.285 240.326 170.605 240.811 171.726C242.266 174.606 243.722 177.327 245.178 180.048C248.574 185.809 252.294 191.251 256.822 196.212C263.614 203.734 272.186 207.415 282.375 207.895C283.992 207.895 285.286 208.375 286.58 209.336C289.491 211.576 292.887 212.696 296.445 212.536C298.224 212.376 299.356 213.017 299.679 214.777C299.841 215.577 300.326 216.377 300.65 217.178C301.458 218.938 302.752 220.058 304.855 219.738C308.089 219.418 311.162 220.058 314.073 221.179C316.176 221.979 318.278 222.139 320.38 221.499C323.938 220.699 324.1 220.859 324.424 224.7C324.909 232.702 325.232 240.704 325.717 248.866C325.879 253.827 326.041 258.949 326.041 263.91C326.041 271.432 324.909 272.552 317.308 272.873C306.957 273.353 296.768 273.193 286.418 272.072C275.744 270.952 265.232 270.152 254.558 270.792C249.221 270.952 243.884 271.432 238.547 271.432C235.15 271.432 231.754 271.112 228.358 270.792C224.153 270.472 221.404 268.391 220.595 264.23C219.14 257.348 217.361 250.467 216.228 243.585C212.347 220.859 208.466 197.973 202.805 175.567C202.805 175.407 202.643 175.407 202.643 175.246C201.835 170.605 201.835 170.445 206.687 169.965ZM194.881 171.405C195.204 169.805 196.336 169.165 198.115 169.485C199.732 169.645 200.056 170.605 200.218 172.046C202.158 180.848 204.261 189.65 206.04 198.613C208.466 211.256 210.73 224.06 212.994 236.863C214.449 245.025 216.067 253.187 217.522 261.349C217.846 263.27 218.493 265.03 219.14 266.791C220.272 270.152 222.698 272.232 226.256 272.873C228.681 273.353 231.269 273.673 233.857 273.673C241.296 273.673 248.574 273.353 256.013 273.033C265.393 272.552 274.773 273.193 284.154 274.153C295.96 275.433 307.766 275.593 319.572 275.113C326.041 274.793 327.82 273.033 328.305 266.631C328.628 263.11 328.467 259.589 328.305 256.068C328.143 248.706 327.82 241.504 327.658 234.142C327.496 230.621 327.173 227.1 326.849 223.579C326.688 221.979 327.173 221.339 328.952 221.179C330.893 221.179 331.054 221.179 331.216 223.259C331.701 230.621 332.186 237.983 332.833 245.505C333.965 259.109 335.259 272.552 336.391 285.996C336.877 292.078 337.523 297.999 338.17 304.081C338.979 311.443 341.567 318.005 346.418 323.606C348.683 326.167 348.683 326.647 346.904 329.528C346.418 330.328 345.771 331.128 345.125 331.928C340.92 337.37 340.111 343.291 342.375 349.693C343.022 351.774 343.993 353.694 344.963 355.615C346.742 359.136 346.58 362.336 344.639 365.697C342.537 369.058 339.949 371.939 336.553 374.02C334.936 375.14 333.157 376.1 331.378 377.22C327.335 379.781 325.556 383.302 325.879 388.103C326.041 391.624 327.011 394.825 328.79 397.706C331.054 401.387 333.48 404.908 335.906 408.429C338.17 411.79 340.596 414.99 342.699 418.351C344.478 421.232 345.448 424.593 344.963 428.114C344.639 430.995 343.992 431.475 341.081 431.475C333.48 431.475 325.879 431.155 318.278 431.155C315.529 431.155 313.911 430.194 312.779 427.634C307.442 416.111 301.782 404.748 296.283 393.225C290.784 381.862 285.286 370.499 279.787 359.136C279.464 358.335 278.978 357.535 278.655 356.735C278.493 356.255 278.655 355.935 278.493 355.455C278.817 355.455 279.302 355.455 279.625 355.615C280.919 355.935 282.051 356.415 283.345 356.415C289.005 356.735 292.563 352.414 290.784 347.132C288.682 341.051 284.962 335.929 280.272 331.608C275.42 327.127 269.922 323.446 263.938 320.565C260.703 318.965 258.439 316.724 256.822 313.523C253.911 307.922 250.676 302.48 247.603 297.039C244.854 292.238 242.913 287.116 242.266 281.355C242.266 281.035 242.266 280.555 242.105 280.234C241.458 277.674 240.487 276.714 238.385 276.554C236.121 276.554 233.857 277.834 233.533 280.074C233.21 281.675 233.372 283.595 233.857 285.196C234.665 287.596 235.636 289.837 236.929 292.078C239.679 297.519 242.59 302.801 245.501 308.082C245.986 308.882 246.31 309.842 246.633 310.803C244.692 310.002 242.752 309.042 240.811 308.242C234.18 305.201 227.388 302.961 219.948 303.281C217.684 303.441 215.42 303.761 213.156 304.241C211.7 304.561 211.053 304.081 210.891 302.64C210.568 298.319 210.083 294.158 209.598 289.837C207.819 274.633 206.04 259.429 204.422 244.225C202.482 225.5 198.277 207.095 195.366 188.37C194.719 184.049 194.395 179.568 194.072 175.246C194.234 174.126 194.557 172.846 194.881 171.405ZM255.043 315.764C252.617 315.124 250.838 313.683 249.706 311.443C245.501 303.441 241.134 295.439 236.929 287.436C236.121 285.996 235.797 284.076 235.474 282.475C235.312 281.675 235.797 280.715 236.283 280.074C237.576 278.474 239.355 278.954 240.002 280.875C240.164 281.515 240.326 282.155 240.487 282.635C240.973 288.557 243.237 293.838 246.148 298.799C248.736 303.441 251.323 307.922 253.911 312.563C254.396 313.683 254.719 314.804 255.043 315.764ZM103.182 364.257C100.917 367.138 98.0063 368.418 94.4483 367.138C89.92 365.377 85.5534 363.457 81.3485 361.216C73.1004 357.055 65.661 351.453 58.3833 345.692C50.1352 339.29 41.2403 334.009 31.5367 330.168C29.1108 329.208 26.8466 328.247 24.5824 327.127C19.0837 324.566 15.0406 320.725 12.2912 315.284C10.3505 311.443 8.08632 307.762 6.30732 303.921C4.69006 300.56 3.39624 296.879 2.42588 293.358C1.13207 288.237 2.26416 283.595 6.1456 279.754C11.1591 274.793 16.1726 270.152 21.3479 265.351C25.2293 261.83 28.4639 258.149 30.0811 253.187C31.5367 248.866 34.9329 246.626 38.8144 244.865C42.6958 243.105 46.5773 241.184 50.4587 239.264C56.1191 236.543 62.103 234.782 68.4103 234.462C72.1301 234.302 75.688 233.822 79.4078 233.182C84.2596 232.382 88.141 229.821 91.3755 226.3C91.699 225.98 91.8607 225.82 92.1842 225.5C96.7125 218.778 103.343 215.577 110.944 213.337C115.635 211.896 120.486 210.456 125.176 209.016C127.117 208.375 128.896 207.575 130.837 206.775C134.071 205.335 136.497 202.934 138.276 199.893C139.57 197.652 140.864 195.572 142.158 193.331C144.584 189.33 148.142 186.61 152.67 185.009C155.096 184.049 157.683 183.249 160.271 182.768C164.638 181.648 168.681 179.728 171.915 176.527C177.576 170.925 184.207 171.405 191.161 173.326C192.778 173.806 192.616 174.766 192.616 175.887C193.102 180.848 193.425 185.969 194.234 190.931C196.013 202.134 198.277 213.177 200.056 224.38C201.673 234.942 203.129 245.505 204.422 256.068C205.716 265.511 206.687 274.953 207.819 284.556C208.466 290.957 208.951 297.359 209.598 303.761C209.759 305.361 209.113 306.321 207.819 306.642C203.614 308.082 199.409 309.362 195.042 310.483C192.778 311.123 190.514 310.483 188.411 309.202C185.339 307.282 185.177 306.321 185.662 302.801C186.147 298.639 186.794 294.478 186.309 290.477C184.207 274.473 184.368 258.309 184.368 242.304C184.368 236.383 183.721 230.461 181.781 224.86C181.134 222.939 180.163 221.179 179.031 219.418C176.767 216.217 173.856 216.377 172.562 220.058C171.592 223.259 170.783 226.78 171.107 229.981C171.43 236.063 172.401 242.144 173.533 248.226C175.312 257.829 177.738 267.431 179.517 277.034C180.325 281.835 180.487 286.796 180.81 291.598C181.134 295.759 181.457 299.92 181.942 303.921C182.104 305.841 181.781 306.802 180.163 307.442C178.384 308.082 175.635 307.602 175.15 306.001C173.209 300.4 168.681 297.199 163.991 293.998C156.875 289.197 152.832 282.475 152.023 273.993C151.538 268.551 150.729 263.27 149.759 257.989C149.112 254.308 147.656 250.627 145.392 247.586C143.937 245.665 141.996 243.745 139.894 242.464C136.821 240.544 133.748 242.304 133.263 245.985C132.939 248.386 133.424 250.787 134.718 252.867C136.012 254.948 137.468 257.028 139.085 259.109C142.643 263.43 144.422 268.391 145.069 273.993C145.554 279.434 146.363 285.036 149.112 289.997C149.274 290.317 149.112 290.637 149.274 290.957C148.95 290.957 148.465 291.117 148.303 290.957C144.907 289.037 141.349 287.276 137.953 285.196C136.982 284.716 136.497 283.595 135.85 282.635C128.249 271.752 122.265 259.909 117.899 247.426C116.928 244.385 115.635 241.504 114.341 238.623C113.694 237.183 112.723 235.423 110.783 235.903C108.68 236.383 109.165 238.463 109.165 240.064C109.489 246.465 111.753 252.067 114.988 257.508C118.384 263.27 122.427 268.711 126.147 274.153C126.955 275.433 127.764 276.714 128.573 277.994C128.734 278.314 128.896 278.474 129.058 278.794C128.896 278.634 128.573 278.474 128.411 278.314C126.308 276.393 123.883 274.633 122.104 272.392C114.017 261.67 102.696 256.548 90.0817 253.507C83.6126 251.907 77.1436 250.947 70.5128 251.587C69.0573 251.747 67.44 251.907 65.9844 252.387C63.3968 253.347 63.2351 255.268 65.3375 256.868C66.1462 257.508 67.2783 258.149 68.2486 258.469C71.1597 259.109 74.2325 259.909 77.1436 260.069C82.9657 260.389 88.7879 260.069 94.6101 260.069C96.7125 260.069 98.6532 260.229 100.756 260.549C106.74 261.349 111.591 264.07 115.473 268.391C116.12 269.031 116.767 269.672 117.252 270.312C126.955 282.155 139.57 289.997 153.479 295.759C157.037 297.199 160.595 298.959 163.991 300.72C157.522 300.56 151.053 300.88 145.23 296.719C138.438 291.918 130.999 292.238 124.044 296.719C119.516 299.6 114.988 301.68 109.651 302.32C102.535 303.281 98.4915 307.442 97.6829 314.484C97.3594 317.364 96.8742 320.245 96.7125 323.126C96.2273 329.208 98.168 334.489 101.403 339.45C102.858 341.691 104.637 344.092 105.769 346.492C108.519 352.894 107.548 358.815 103.182 364.257ZM183.721 290.797C184.045 293.838 184.368 296.879 182.913 299.92C182.751 297.359 182.589 294.798 182.589 292.078C182.266 280.074 179.84 268.391 177.252 256.708C175.797 250.627 174.341 244.545 173.533 238.303C172.886 233.342 173.209 228.221 173.371 223.259C173.371 221.819 173.533 219.418 175.473 219.418C176.444 219.418 177.576 221.339 178.223 222.619C180.81 227.741 181.296 233.182 181.619 238.783C181.942 244.225 181.942 249.826 181.781 255.428C181.457 267.431 182.589 279.114 183.721 290.797ZM164.961 298.319C162.05 297.039 158.977 295.919 156.228 294.478C152.185 292.398 149.759 288.877 148.627 284.556C147.656 280.555 146.848 276.393 146.363 272.392C145.716 267.431 143.937 262.95 140.864 258.949C139.247 256.868 137.629 254.628 136.174 252.547C135.042 250.787 134.395 248.866 134.557 246.786C134.88 244.385 136.497 243.265 138.6 244.705C140.54 246.145 142.158 247.906 143.451 249.826C146.363 254.148 147.495 259.269 148.142 264.39C148.627 268.391 149.112 272.392 149.597 276.393C150.729 284.236 154.611 290.477 161.08 295.118C162.535 296.079 163.667 297.199 164.961 298.319ZM122.265 265.671C120.163 262.63 118.06 259.749 116.12 256.708C113.532 252.227 111.591 247.426 110.783 242.304C110.621 241.504 110.621 240.544 110.621 239.744C110.621 239.584 110.783 239.104 110.944 239.104C111.268 239.104 111.753 239.264 111.915 239.424C112.723 241.024 113.37 242.624 114.017 244.225C116.443 250.467 118.869 256.548 121.295 262.79C121.618 263.75 121.942 264.71 122.265 265.671ZM95.5804 257.668C87.9793 257.508 80.3781 258.789 72.9387 257.508C70.6745 257.188 68.5721 256.228 66.4696 255.428C66.1462 255.268 65.9844 254.788 65.9844 254.628C65.9844 254.468 66.4696 253.987 66.7931 253.987C70.3511 253.667 73.909 253.027 77.3053 253.507C82.804 254.148 88.3027 255.588 93.6397 256.708C94.2866 256.868 94.9335 257.348 95.5804 257.668ZM109.165 363.777C108.519 363.457 107.386 362.816 107.386 362.336C107.386 361.536 108.033 360.576 108.519 359.776C109.004 360.736 109.651 361.696 110.298 362.977C109.812 363.297 109.327 363.937 109.165 363.777ZM109.165 349.693C109.004 349.373 108.842 349.053 108.68 348.733C107.063 345.692 105.769 342.491 103.828 339.77C97.036 330.648 97.6829 320.725 100.594 310.643C101.241 308.242 103.02 306.481 105.446 305.681C107.71 305.041 110.136 304.241 112.4 303.921C116.12 303.281 119.516 302.16 122.589 299.92C123.397 299.28 124.206 298.799 125.176 298.319C131.322 294.798 137.468 294.478 143.451 298.319C148.465 301.68 153.964 303.281 159.948 302.961C161.241 302.961 162.697 303.281 164.476 303.441C147.818 312.403 133.91 324.246 120.648 336.73C116.767 340.25 113.694 344.732 110.298 348.733C109.974 349.213 109.489 349.373 109.165 349.693ZM147.495 355.294C139.732 359.616 131.645 363.297 122.912 365.377C121.618 365.697 120.163 365.537 118.707 365.697C112.723 365.537 112.562 365.217 111.106 359.616C109.812 354.974 110.783 350.813 113.856 347.452C117.737 343.131 121.618 338.81 125.985 334.809C136.012 325.687 146.524 317.044 158.007 309.842C160.109 308.562 162.535 307.442 164.799 306.481C167.387 305.361 169.651 306.161 171.754 308.082C172.724 309.042 172.886 310.002 172.077 311.123C170.945 312.563 169.651 314.164 168.196 315.124C165.932 316.724 163.506 318.005 161.08 319.445C157.198 321.526 153.802 324.086 151.214 327.607C147.495 332.568 142.966 336.409 137.144 338.81C134.557 339.77 132.778 341.691 131.322 344.092C130.999 344.572 130.675 345.052 130.352 345.692C127.602 350.493 123.397 353.534 118.06 355.134C116.928 355.455 114.988 355.295 115.473 357.055C115.958 358.335 117.575 357.375 118.546 357.055C121.78 356.255 124.853 354.974 127.279 352.734C128.249 351.774 129.381 351.614 130.675 351.453C136.821 350.173 142.158 352.094 147.656 354.334C147.98 354.494 148.465 354.814 148.465 354.974C148.142 354.814 147.818 355.134 147.495 355.294ZM162.697 354.334C155.904 354.014 149.274 352.894 143.128 350.173C139.732 348.733 136.012 348.573 132.292 349.053C130.999 349.213 130.675 348.733 131.322 347.612C133.263 344.412 135.527 341.531 139.085 340.09C144.26 338.01 148.465 334.489 151.7 330.008C154.934 325.847 158.977 322.646 163.667 320.245C166.578 318.805 169.328 316.884 171.915 314.804C173.371 313.683 173.856 311.283 175.312 310.483C176.605 309.682 178.708 310.002 180.487 309.682C181.134 309.522 181.619 309.202 182.104 308.882C182.913 308.242 183.56 308.402 184.368 309.042C188.411 313.043 193.263 313.683 198.439 311.763C202.158 310.483 205.716 309.042 209.436 307.762C215.743 305.681 222.051 304.881 228.52 306.642C232.563 307.762 236.606 308.882 240.326 310.803C249.544 315.444 258.601 320.245 267.496 325.367C274.773 329.528 281.566 334.489 285.771 342.011C286.418 343.131 286.903 344.252 287.388 345.372C287.873 346.332 288.52 347.292 288.844 348.253C289.652 350.173 289.491 351.934 287.873 353.534C286.256 354.974 284.154 355.615 282.213 354.814C280.111 353.854 278.008 352.574 276.067 351.133C270.083 346.972 264.1 342.651 258.116 338.33C249.706 332.568 240.326 328.727 230.46 326.007C229.005 325.687 227.549 325.206 225.932 325.046C225.285 325.046 224.153 325.367 223.991 325.847C223.668 326.487 223.668 327.767 224.153 328.247C225.285 329.208 226.579 330.168 228.035 330.488C231.269 331.128 234.504 331.128 237.9 331.448C239.355 331.608 240.973 331.608 242.266 332.248C250.515 335.449 257.63 340.411 264.908 345.372C266.525 348.093 268.304 350.973 269.922 353.694L269.437 354.174C267.172 353.054 266.202 354.974 265.07 356.095C263.453 357.855 264.908 359.136 265.879 360.416C265.879 360.416 265.717 360.576 265.555 361.056C263.453 359.776 261.188 358.655 259.086 357.215C255.043 354.334 250.676 352.574 245.986 351.293C242.59 350.333 239.194 349.373 235.636 348.573C233.371 347.933 231.431 346.972 229.652 345.372C228.196 344.092 226.579 342.811 224.8 341.691C223.83 341.051 222.698 340.731 221.565 340.571C220.919 340.571 219.786 341.051 219.463 341.531C219.14 342.171 219.14 343.451 219.625 343.931C220.757 345.052 222.051 346.172 223.506 346.652C227.388 348.093 231.431 349.373 235.474 350.493C238.708 351.453 241.781 352.254 245.016 353.054C249.706 354.334 254.073 356.255 258.116 358.975C261.512 361.216 265.232 362.817 268.79 364.577C269.922 365.217 271.054 365.697 272.186 366.337C274.774 368.098 274.774 368.898 271.862 370.659C272.509 367.778 271.701 366.337 269.113 365.697C267.819 365.377 266.849 365.857 266.525 367.138C266.364 368.258 266.364 369.378 266.525 370.499C266.687 371.299 267.172 371.939 267.334 372.739C266.525 372.899 265.555 373.059 264.746 373.059C258.924 373.379 253.426 372.419 247.765 371.299C241.458 370.178 235.312 368.898 229.005 367.778C225.609 367.298 222.698 366.017 220.11 363.937C218.169 362.496 215.905 361.536 213.803 360.416C212.67 359.936 211.538 359.936 210.891 361.056C210.245 362.336 211.053 363.297 212.024 363.937C215.096 366.177 218.654 367.618 222.536 368.258C234.18 370.499 245.824 372.419 257.307 374.5C257.792 374.66 258.277 374.66 258.763 374.66C258.924 374.66 259.409 374.98 259.409 374.98C259.409 375.3 259.248 375.78 259.086 375.94C256.337 377.7 253.426 378.821 250.191 378.661C243.56 378.181 236.768 377.7 230.137 376.9C224.477 376.26 218.816 375.46 213.156 374.82C206.525 374.18 200.541 372.099 195.204 368.258C190.837 365.057 186.309 362.016 181.457 359.456C175.635 356.735 169.489 354.654 162.697 354.334ZM230.299 328.087C230.299 328.247 230.299 328.407 230.137 328.567C229.167 328.407 228.196 328.087 227.064 327.927C227.064 327.767 227.226 327.447 227.226 327.287C228.358 327.607 229.328 327.927 230.299 328.087ZM268.143 359.296C267.658 358.495 267.011 358.015 266.849 357.535C266.849 357.375 267.496 356.895 267.658 356.575C267.981 357.215 268.466 357.695 268.79 358.335C268.951 358.335 268.466 358.655 268.143 359.296ZM226.256 345.212C224.638 345.052 223.183 344.572 221.727 342.811C223.83 342.971 225.123 344.092 226.256 345.212ZM216.228 364.257C215.743 363.937 215.258 363.777 214.773 363.457C215.258 363.617 215.743 363.937 216.228 364.257ZM177.091 439.157C175.15 428.114 173.856 417.071 174.503 405.708C175.15 392.104 173.209 378.821 170.298 365.697C169.975 364.097 169.651 362.496 169.328 360.896C168.519 357.215 168.843 356.895 172.239 358.175C175.15 359.296 177.899 360.416 180.649 361.696C183.56 363.297 186.309 365.057 189.058 366.818C194.395 370.499 199.409 374.66 205.878 376.26C206.363 376.42 206.848 377.22 207.01 377.861C207.172 378.501 207.01 379.301 207.01 380.101C206.525 391.304 206.201 402.507 205.393 413.71C204.584 425.553 203.614 437.556 202.482 449.4C202.158 453.081 201.026 456.762 200.218 460.443C199.894 462.203 198.762 463.643 197.306 464.764C194.557 466.844 191.646 469.085 189.058 471.486C186.471 473.886 184.045 476.447 181.457 478.847C180.972 479.328 180.487 479.808 179.84 480.608C179.84 477.727 179.678 475.327 179.84 472.926C180.163 461.563 179.031 450.2 177.091 439.157ZM194.072 470.685C190.837 475.647 186.794 479.808 182.104 483.649C181.619 483.969 180.972 484.129 180.487 484.289C181.781 482.368 182.913 479.968 184.692 478.367C187.603 475.487 190.837 473.246 194.072 470.685ZM224.962 594.558C224.962 597.279 224.962 597.439 221.889 597.439C206.363 597.439 190.837 597.439 175.312 597.439C174.826 597.439 174.341 597.439 173.856 597.439C172.886 597.439 172.401 597.119 172.724 595.999C176.282 586.236 175.312 576.153 174.665 566.071C174.018 556.308 173.856 546.706 177.091 537.263C179.031 531.822 178.384 526.06 177.899 520.459C176.929 510.376 176.282 500.453 178.061 490.371C178.384 488.61 179.031 487.49 180.649 486.53C183.075 485.089 185.662 483.489 187.603 481.408C190.999 478.047 194.072 474.366 196.983 470.525C198.439 468.765 199.894 467.805 201.997 467.645C206.363 467.324 210.568 467.004 214.935 467.004C230.622 467.004 246.471 467.324 262.159 467.164C273.803 467.164 285.286 467.004 296.93 466.524C308.898 466.204 320.866 465.404 332.672 464.924C335.098 464.764 337.523 464.924 339.788 465.564C348.197 467.644 356.607 468.285 365.017 466.684C367.928 466.044 368.251 466.364 368.251 469.085C368.413 474.206 368.413 479.328 368.575 484.609C368.575 487.33 368.575 487.49 365.826 487.49C349.329 487.17 332.833 486.85 316.176 486.69C309.868 486.53 303.723 486.69 297.415 486.69C297.415 486.53 297.415 486.529 297.415 486.369C275.744 486.049 253.911 485.729 232.239 485.409C230.784 485.409 229.328 485.249 228.035 485.569C226.256 486.049 224.477 486.85 223.021 487.81C221.404 489.09 221.08 491.651 222.536 492.771C224.477 494.372 224.315 496.292 224.153 498.213C223.668 517.258 223.991 536.143 224.477 555.188C225.123 568.471 224.962 581.435 224.962 594.558ZM421.783 500.133C421.46 516.297 421.136 532.302 420.974 548.466C420.813 559.029 420.651 569.592 420.489 580.154C420.327 585.116 420.166 589.917 420.004 594.878C419.842 597.919 419.842 597.919 416.608 597.919C415.799 597.919 414.829 597.919 413.858 597.919C353.049 597.759 292.402 597.599 231.592 597.439C231.269 597.439 231.107 597.439 230.784 597.439C226.902 597.439 226.902 597.439 226.902 593.758C226.902 586.716 226.902 579.674 226.902 572.632C226.741 558.229 226.417 543.665 226.256 529.261C226.256 519.018 226.417 508.935 226.417 498.693C226.417 497.893 226.579 497.252 226.579 496.452C226.741 495.492 227.388 495.012 228.358 495.012C229.814 495.012 231.107 495.012 232.563 495.012C263.129 495.332 293.857 495.652 313.264 495.972C355.799 496.612 387.335 496.932 418.71 497.412C421.783 497.092 421.783 497.252 421.783 500.133ZM377.146 494.532C359.842 494.212 342.537 494.052 328.628 493.891C298.709 493.571 272.186 493.251 245.663 492.931C239.517 492.931 233.533 492.611 227.388 492.451C226.902 492.451 226.256 492.611 225.932 492.291C225.285 491.971 224.477 491.491 224.315 491.011C224.153 490.371 224.638 489.57 225.123 489.09C226.741 487.65 228.681 487.33 230.784 487.33C237.9 487.49 245.016 487.65 252.132 487.65C260.703 487.81 269.437 487.97 278.008 487.97C298.871 488.29 319.734 488.61 340.435 488.93C368.09 489.41 395.745 489.89 423.562 490.371C426.311 490.371 427.282 491.651 426.15 493.731C425.826 494.372 425.018 494.852 424.371 495.012C423.724 495.172 422.915 495.012 422.106 495.012C407.228 494.852 392.187 494.692 377.146 494.532Z" fill="#333333"/>
<path d="M374.397 518.858C372.456 518.538 371.971 517.738 371.971 515.817C372.133 513.257 372.133 510.856 371.971 508.295C371.809 504.935 371.001 503.974 367.604 503.014C366.796 502.694 365.987 502.214 365.34 501.894C363.885 501.254 362.429 500.453 360.812 500.133C359.033 499.813 357.092 499.813 355.152 499.813C344.154 499.653 333.318 499.333 322.321 499.333C319.572 499.333 316.661 498.853 314.396 501.093C314.073 501.414 313.426 501.253 312.941 501.414C308.898 502.054 308.089 502.694 307.766 506.855C307.604 509.416 307.442 511.816 307.442 514.377C307.442 515.977 307.119 517.258 305.34 517.898C302.59 519.018 301.458 521.579 301.782 524.3C301.943 527.18 303.722 529.261 306.472 530.061C308.089 530.541 309.706 530.861 311.324 531.021C315.69 531.342 320.219 531.662 324.585 531.822C331.378 531.982 338.008 532.142 343.992 532.302C352.564 532.622 360.327 532.942 368.09 533.102C370.03 533.102 371.971 532.942 373.75 532.622C376.823 532.142 378.44 530.541 378.925 527.34C379.087 526.22 379.087 525.1 379.087 523.98C378.764 520.459 378.117 519.498 374.397 518.858ZM363.4 522.859C363.561 520.299 363.723 517.898 363.561 515.337C363.4 512.296 364.208 509.416 365.179 506.535C365.502 505.575 365.825 504.774 366.958 504.934C368.09 505.095 369.222 505.415 369.545 506.695C369.707 507.655 369.869 508.615 369.869 509.736C369.869 511.496 369.869 513.257 369.869 515.497C369.707 517.898 369.545 520.779 369.06 523.66C368.737 526.06 367.766 526.54 365.34 526.22C363.561 525.9 363.238 525.42 363.4 522.859ZM319.248 501.254C321.189 501.093 322.968 501.254 324.909 501.254C329.599 501.254 334.289 501.254 338.979 501.254C338.979 501.414 338.979 501.734 338.979 501.894C344.801 501.894 350.623 501.894 356.445 501.894C357.416 501.894 358.548 501.894 359.518 502.214C360.812 502.534 362.914 502.054 363.076 503.654C363.238 505.415 362.591 507.335 361.944 508.936C361.782 509.416 360.488 509.896 359.68 509.896C356.284 510.056 352.887 510.376 349.491 510.216C343.345 510.216 337.362 510.056 331.216 509.736C327.981 509.576 324.909 509.256 321.836 508.936C318.601 508.455 317.469 507.175 317.146 503.974C316.984 501.894 317.307 501.414 319.248 501.254ZM321.351 516.298C317.793 516.298 317.793 516.298 317.793 512.777C317.793 510.376 317.793 510.536 320.38 510.696C327.011 511.336 333.48 511.816 340.111 512.136C346.418 512.296 352.887 512.136 359.195 512.136C361.297 512.136 361.621 512.457 361.621 514.057C361.621 516.618 361.135 517.258 359.195 517.418C357.254 517.418 355.313 517.418 353.534 517.418C353.534 517.258 353.534 517.098 353.534 516.938C342.699 516.778 332.025 516.458 321.351 516.298ZM310.191 505.575C310.191 503.814 311.485 503.334 313.103 503.334C314.235 503.334 315.043 503.654 315.205 504.934C315.367 506.215 315.528 507.335 315.528 508.615C315.528 510.056 315.528 511.656 315.528 513.097C315.69 513.097 315.69 513.097 315.852 513.097C315.69 515.657 315.69 518.058 315.528 520.619C315.367 522.539 314.396 523.019 312.294 522.859C310.353 522.859 309.545 522.379 309.545 520.459C309.706 515.497 309.868 510.536 310.191 505.575ZM376.823 527.501C376.661 529.261 375.367 530.381 373.588 530.701C372.295 530.861 371.001 531.021 369.869 530.861C362.429 530.701 355.151 530.541 347.712 530.381C337.362 530.061 327.173 529.741 316.822 529.261C313.749 529.101 310.677 528.781 307.766 528.141C304.693 527.501 303.399 524.94 304.208 522.059C304.369 521.419 304.855 520.619 305.34 520.139C306.148 519.178 307.119 519.498 307.604 520.779C308.898 524.3 309.706 524.94 312.779 524.78C315.852 524.62 317.307 523.659 317.631 520.619C317.954 518.698 318.763 518.058 320.542 518.058C328.305 518.218 336.068 518.218 343.831 518.538C348.844 518.698 353.696 519.018 358.709 519.498C361.135 519.658 361.135 519.658 361.135 522.219C361.297 527.18 362.429 528.301 367.119 527.981C369.545 527.821 370.192 527.34 370.839 524.94C371.001 524.14 371.162 523.499 371.324 522.699C371.486 521.579 371.648 520.459 373.265 520.459C375.044 520.459 376.499 521.259 376.661 522.699C376.985 524.46 376.985 526.06 376.823 527.501Z" fill="#333333"/>
<path d="M217.36 285.196C219.786 285.196 221.727 283.115 221.565 280.875C221.565 278.474 219.301 276.394 216.875 276.554C214.611 276.714 212.832 278.634 212.994 281.195C212.994 283.595 214.773 285.356 217.36 285.196ZM217.199 278.794C218.493 278.794 219.139 279.594 219.301 281.035C219.301 282.315 218.654 283.115 217.36 283.275C216.067 283.435 214.935 282.155 215.096 280.875C215.096 279.594 215.905 278.794 217.199 278.794Z" fill="#333333"/>
<path d="M328.79 288.237C331.378 288.077 333.319 285.996 333.319 283.596C333.319 281.355 331.701 279.915 329.437 279.915C326.849 279.915 324.424 282.315 324.585 284.716C324.747 286.796 326.526 288.237 328.79 288.237ZM327.011 284.236C327.173 282.955 328.305 281.835 329.599 281.995C330.246 282.155 330.893 282.795 331.378 283.115C331.378 284.876 329.922 286.156 328.467 286.156C327.335 285.996 326.849 285.356 327.011 284.236Z" fill="#333333"/>
<path d="M282.213 346.012C281.728 346.492 281.081 346.972 280.596 347.613C278.979 349.693 279.464 351.774 281.89 352.734C284.801 354.014 288.035 351.934 287.873 348.733C287.873 347.613 287.388 346.492 287.227 345.372C285.448 344.092 283.669 344.412 282.213 346.012ZM285.609 348.253C285.609 350.013 285.124 350.814 283.669 350.814C283.022 350.814 282.213 350.173 282.051 349.693C281.728 348.893 283.83 346.812 284.801 347.133C285.286 347.293 285.448 348.093 285.609 348.253Z" fill="#333333"/>
<path d="M458.171 272.713C455.422 272.713 453.32 274.153 453.481 276.074C453.481 277.674 456.231 279.755 458.171 279.755C459.95 279.755 461.244 277.674 461.244 274.793C461.083 273.193 460.274 272.713 458.171 272.713ZM457.686 277.034C457.039 276.874 456.554 276.234 456.069 275.914C456.554 275.593 457.201 274.953 457.686 274.793C458.01 274.793 458.495 275.433 459.142 275.914C458.495 276.554 458.01 277.194 457.686 277.034Z" fill="#333333"/>
</g>
<defs>
<clipPath id="clip0_37_276">
<rect width="562" height="600" fill="white"/>
</clipPath>
</defs>
</svg>
