<svg width="11" height="11" viewBox="0 0 11 11" fill="none" xmlns="http://www.w3.org/2000/svg">
<g id="Github" clip-path="url(#clip0_2_23428)">
<path id="Vector" d="M5.66231 0.99408C2.97894 0.992995 0.805542 3.1653 0.805542 5.84651C0.805542 7.96674 2.16513 9.76904 4.05858 10.4309C4.31357 10.4949 4.27451 10.3137 4.27451 10.19V9.34911C2.80207 9.52164 2.74239 8.54725 2.64365 8.38449C2.444 8.04378 1.97199 7.95697 2.11305 7.79421C2.44834 7.62168 2.79013 7.83761 3.18618 8.42247C3.47264 8.84673 4.03145 8.77511 4.31466 8.70458C4.37651 8.44959 4.50888 8.22173 4.69118 8.04486C3.16557 7.77142 2.52972 6.84043 2.52972 5.73366C2.52972 5.19655 2.70658 4.70285 3.05381 4.30463C2.83245 3.64816 3.07442 3.08609 3.10697 3.00254C3.7374 2.94612 4.39278 3.45393 4.44378 3.49408C4.80185 3.39751 5.21092 3.34651 5.66882 3.34651C6.12889 3.34651 6.53905 3.39968 6.90038 3.49734C7.02299 3.40402 7.63063 2.96782 8.21657 3.02099C8.24803 3.10454 8.48458 3.65359 8.27625 4.30137C8.62781 4.70068 8.80684 5.19872 8.80684 5.73692C8.80684 6.84586 8.16665 7.77793 6.63671 8.04703C6.76775 8.1759 6.8718 8.3296 6.94278 8.49913C7.01376 8.66867 7.05025 8.85065 7.05012 9.03444V10.2551C7.0588 10.3528 7.05012 10.4494 7.21288 10.4494C9.13454 9.80159 10.518 7.98627 10.518 5.8476C10.518 3.1653 8.34352 0.99408 5.66231 0.99408Z" fill="black" fill-opacity="0.45"/>
</g>
<defs>
<clipPath id="clip0_2_23428">
<rect width="9.72222" height="9.72222" fill="white" transform="translate(0.805542 0.861145)"/>
</clipPath>
</defs>
</svg>
