<svg width="18" height="18" viewBox="0 0 18 18" fill="none" xmlns="http://www.w3.org/2000/svg">
<g clip-path="url(#clip0_74_679)">
<path d="M14.25 2H3.75C2.233 2 1 3.233 1 4.75V13.25C1 14.767 2.233 16 3.75 16H9.612C10.026 16 10.362 15.664 10.362 15.25C10.362 14.836 10.026 14.5 9.612 14.5H3.75C3.061 14.5 2.5 13.939 2.5 13.25V8H15.5V9.978C15.5 10.392 15.836 10.728 16.25 10.728C16.664 10.728 17 10.392 17 9.978V4.75C17 3.233 15.767 2 14.25 2ZM4 6C3.448 6 3 5.552 3 5C3 4.448 3.448 4 4 4C4.552 4 5 4.448 5 5C5 5.552 4.552 6 4 6ZM7 6C6.448 6 6 5.552 6 5C6 4.448 6.448 4 7 4C7.552 4 8 4.448 8 5C8 5.552 7.552 6 7 6Z" fill="#D7D7D7"/>
<path d="M17.3239 12.233L11.3839 10.063C11.0049 9.92401 10.5889 10.016 10.3019 10.303C10.0159 10.59 9.92492 11.005 10.0649 11.384L12.2349 17.325C12.3839 17.731 12.7709 18 13.2019 18H13.2239C13.6629 17.99 14.0489 17.703 14.1819 17.284L14.9349 14.933L17.2869 14.181C17.7059 14.047 17.9929 13.661 18.0019 13.221C18.0109 12.781 17.7379 12.384 17.3259 12.233H17.3239Z" fill="#D7D7D7"/>
</g>
<defs>
<clipPath id="clip0_74_679">
<rect width="18" height="18" fill="white"/>
</clipPath>
</defs>
</svg>
